<?xml version="1.0" encoding="utf-8"?>
<!-- Generator: Adobe Illustrator 26.5.0, SVG Export Plug-In . SVG Version: 6.00 Build 0)  -->
<svg width="75" height="28" version="1.1" id="Layer_1" xmlns="http://www.w3.org/2000/svg" xmlns:xlink="http://www.w3.org/1999/xlink" x="0px" y="0px"
	 viewBox="0 0 1080 374.85" style="enable-background:new 0 0 1080 374.85;" xml:space="preserve">
<style type="text/css">
	.st0{fill:#115177;}
	.st1{fill:#FFFFFF;}
	.st2{fill:#521175;}
	.st3{fill:#890A7D;}
	.st4{fill:#F97C28;}
	.st5{fill:#06394F;}
	.st6{fill:#911420;}
	.st7{fill:#EAA907;}
	.st8{fill:#33AD05;}
</style>
<g>
	<g>
		<g>
			<path d="M545.06,119.42h26.6V235.6h-23.47v-69.43l-33.64,69.43h-26.99l-33.84-69.43v69.43h-23.27V119.42h26.4l44.2,90.75
				L545.06,119.42z"/>
			<path d="M621.13,212.32h82.34v23.27H597.86V119.42h105.03v23.27h-81.75v23.08h51.63v23.27h-51.63V212.32z"/>
			<path d="M747.28,212.32h82.34v23.27H724.01V119.42h23.27V212.32z"/>
			<path d="M846.44,119.42h97.79l19.17,17.41v82.73l-18.97,16.04h-97.99V119.42z M940.12,147.2l-4.89-4.5h-65.52v69.63h66.3
				l4.11-3.52V147.2z"/>
			<path d="M988.82,235.6l-0.39-116.17h23.47l0.2,116.17H988.82z"/>
		</g>
	</g>
	<path d="M393.4,257.94c-9.71-5.74-19.61-11.17-29.39-16.79c-1.68-0.97-3.03-1.84-5.1-0.54c-8.35,5.24-16.82,10.29-25.77,15.74
		c6.63,3.74,12.85,6.35,18.13,11.31c-1.28,0.89-2.26,1.69-3.34,2.32c-34.34,20.08-68.72,40.08-102.99,60.28
		c-3.91,2.3-6.42,0.54-9.49-1.26c-35.01-20.51-69.65-41.69-105.31-61c-12.36-6.69-19.03-13.53-16.92-27.86
		c1.1-7.46-0.77-15.24,1.1-23.31c2.38,1.15,4.1,1.85,5.69,2.78c34.06,19.87,68.06,39.84,102.17,59.61
		c10.51,6.09,20.64,10.19,32.85,1.68c15.81-11.02,32.86-20.27,49.43-30.21c26-15.61,52.07-31.1,78.04-46.76
		c6.5-3.92,7.49-9.38,3.38-15.72c-6.17-9.53-17.42-12.13-28.24-5.86c-37.64,21.85-75.19,43.87-112.68,65.99
		c-3.27,1.93-5.62,3.08-9.39,0.86c-39.14-23.01-78.38-45.86-117.66-68.63c-3.2-1.85-4.52-3.94-4.47-7.65
		c0.2-16.16,0.28-32.32,0.06-48.47c-0.05-3.89,1.51-5.61,4.67-7.37c39.4-22.05,78.75-44.2,118.03-66.46
		c3.45-1.96,6.25-2.11,9.67-0.11c9.27,5.44,18.69,10.64,28.05,15.92c25.47,14.36,50.95,28.72,77.88,43.89
		c-5.39,3.14-10.72,6.23-16.05,9.33L233.2,65.06l2.87,55.4l-100.31,16.6l38.36,27.07c0.17,0.08,0.33,0.16,0.5,0.24l66.84,46.96
		l31.07-16.36l-18.91-12.8l0,0l-3.96-2.68c-0.55-0.52-1.09-1.05-1.6-1.61c-1.13-0.5-2.21-1.1-3.29-1.71l-29.52-19.98v0l-7.16-4.85
		l56.11-9.28l-1.65-31.82L306,133.38c0.15,0.02,0.3,0.04,0.44,0.08c1.3,0.44,2.59,0.99,3.78,1.67c0.47,0.27,0.93,0.57,1.38,0.88
		c0.26,0.18,0.52,0.38,0.77,0.57c0.2,0.15,0.4,0.29,0.59,0.44c1.78,0.76,3.52,1.63,5.22,2.56c0.06,0.03,0.12,0.06,0.18,0.1
		c0.69,0.38,1.38,0.78,2.06,1.17c0.31,0.18,0.61,0.36,0.91,0.54c0.57,0.34,1.13,0.68,1.69,1.03c0.66,0.41,1.32,0.82,1.97,1.23
		c2.31,1.47,4.66,3.04,6.94,4.72c3.44,1.8,6.8,3.78,10.19,5.7c16.55-9.48,33.13-18.93,49.75-28.29c7.42-4.18,5.39-9.89,6.01-15.7
		c0.56-5.2-2.01-7.44-6.23-9.8c-48.1-26.9-96.13-53.93-144-81.22c-4.94-2.82-8.42-2.59-13.15,0.09
		c-47.7,27.08-95.48,54.03-143.39,80.74c-4.96,2.76-6.5,5.79-6.48,11.3c0.21,50.9,0.28,101.8-0.06,152.69
		c-0.05,7.37,2.17,11.4,8.62,15.08c40.61,23.16,81.21,46.36,121.26,70.48c17.54,10.56,33.76,11.44,51.39,1.05
		c42.37-24.96,85.02-49.47,127.52-74.21C400,272.4,400.05,261.87,393.4,257.94z"/>
	<g>
		<g>
			<path d="M528.36,282.82h-17.03v12.39h18.66l-0.38,2.11h-20.85v-29.5h20.47v2.11h-17.89v10.79h17.03V282.82z"/>
			<path d="M550.88,297.32v-29.5h3.82c5.2,7.08,17.41,23.56,19.51,26.76h0.05c-0.29-4.26-0.24-8.6-0.24-13.4v-13.36h2.62v29.5h-3.53
				c-4.96-6.83-17.37-23.98-19.75-27.22h-0.05c0.24,3.88,0.19,8.17,0.19,13.53v13.7H550.88z"/>
			<path d="M607.47,269.93h-11.21v-2.11h25.1v2.11h-11.26v27.39h-2.62V269.93z"/>
			<path d="M660.23,282.82H643.2v12.39h18.66l-0.38,2.11h-20.85v-29.5h20.47v2.11H643.2v10.79h17.03V282.82z"/>
			<path d="M685.37,283.54v13.78h-2.62v-29.5h11.98c6.58,0,10.07,3.12,10.07,7.75c0,3.75-2.53,6.19-6.25,6.91
				c3.43,0.72,5.73,2.7,5.73,7.71v1.14c0,2.06-0.19,4.85,0.43,5.98h-2.62c-0.62-1.26-0.48-3.62-0.48-6.15v-0.76
				c0-4.85-1.62-6.87-8.02-6.87H685.37z M685.37,281.43h8.06c5.87,0,8.59-1.94,8.59-5.82c0-3.62-2.67-5.69-7.87-5.69h-8.78V281.43z"
				/>
			<path d="M727.26,267.82h11.93c6.11,0,10.31,2.99,10.31,8.22c0,5.31-4.15,8.43-10.64,8.43h-8.97v12.85h-2.62V267.82z
				 M729.89,282.36h9.21c5.39,0,7.63-2.53,7.63-6.24c0-3.96-2.96-6.19-7.44-6.19h-9.4V282.36z"/>
			<path d="M773.21,283.54v13.78h-2.62v-29.5h11.98c6.58,0,10.07,3.12,10.07,7.75c0,3.75-2.53,6.19-6.25,6.91
				c3.43,0.72,5.73,2.7,5.73,7.71v1.14c0,2.06-0.19,4.85,0.43,5.98h-2.62c-0.62-1.26-0.48-3.62-0.48-6.15v-0.76
				c0-4.85-1.62-6.87-8.02-6.87H773.21z M773.21,281.43h8.06c5.87,0,8.59-1.94,8.59-5.82c0-3.62-2.67-5.69-7.87-5.69h-8.78V281.43z"
				/>
			<path d="M817.67,267.82v29.5h-2.58v-29.5H817.67z"/>
			<path d="M841.58,289.4c1,3.92,3.96,6.24,9.45,6.24c6.11,0,8.44-2.7,8.44-5.9c0-3.33-1.67-5.39-9.02-6.99
				c-7.06-1.56-10.12-3.58-10.12-7.84c0-3.88,3.2-7.5,10.35-7.5c7.35,0,10.45,3.96,10.88,7.54h-2.67c-0.76-3.16-3.1-5.44-8.35-5.44
				c-4.82,0-7.44,1.98-7.44,5.27c0,3.24,2.19,4.51,8.35,5.86c9.4,2.06,10.78,5.39,10.78,8.93c0,4.34-3.58,8.09-11.31,8.09
				c-8.35,0-11.4-4.3-12.02-8.26H841.58z"/>
			<path d="M903.46,282.82h-17.03v12.39h18.66l-0.38,2.11h-20.85v-29.5h20.47v2.11h-17.89v10.79h17.03V282.82z"/>
		</g>
	</g>
</g>
</svg>
