<?xml version="1.0" encoding="utf-8"?>
<!-- Generator: Adobe Illustrator 26.5.0, SVG Export Plug-In . SVG Version: 6.00 Build 0)  -->
<svg version="1.1" id="Layer_1" xmlns="http://www.w3.org/2000/svg" xmlns:xlink="http://www.w3.org/1999/xlink" x="0px" y="0px"
	 viewBox="0 0 1080 519.8" style="enable-background:new 0 0 1080 519.8;" xml:space="preserve">
<style type="text/css">
	.st0{fill:#FFFFFF;}
	.st1{fill:url(#SVGID_1_);}
	.st2{fill:url(#SVGID_00000033359610522623271680000016985737156056880773_);}
	.st3{fill:url(#SVGID_00000134964392005513645420000017698472229311622585_);}
	.st4{fill:url(#SVGID_00000163793668991218689930000013002198946706330774_);}
	.st5{fill:url(#SVGID_00000175305629893555152750000008461613170943591043_);}
	.st6{fill:url(#SVGID_00000116208631825375798500000010706069211227669916_);}
	.st7{fill:url(#SVGID_00000091706712490094678300000009984680670766155908_);}
	.st8{fill:url(#SVGID_00000112598922922095192260000012018815269402746763_);}
	.st9{fill:url(#SVGID_00000132057162511670294900000008682704588929288097_);}
	.st10{fill:#03325C;}
	.st11{fill:#FF7E30;}
</style>
<g>
	<path d="M767.49,400.01l20.09,1.91c-52.24,30.81-107.71,55.38-166.05,74.11c-69.94,22.46-141.18,36.81-215.24,29.7
		c-27.92-2.68-54.9-9.13-78.94-24.36c-27.65-17.52-42.53-42.56-41.33-75.68c0.58-15.94,4.5-30.77,10.54-44.83l9.5-35.55h15.4
		l-5.78,21.67h18.47c2.23,0,4.6-1.88,5.23-4.18l1.32-5.02c0.63-2.3-0.7-4.11-3-4.11h-15.61l7.39-8.36h20.21
		c5.37,0,8.57,4.39,7.11,9.76l-2.37,8.78c-1.18,4.6-4.95,8.57-9.34,10.38l4.53,16.45H334.3l-4.25-15.4h-16.59l-2.87,10.58
		c3.76,38.71,33.38,59.3,69.96,69.42c22.6,6.25,45.78,8.15,69.18,7.66c67.94-1.41,132.64-18.04,195.25-43.07
		c7.59-3.04,15.13-6.16,22.61-9.38l52.53,5.01c0.72,0.78,1.73,1.34,3.09,1.47c14.48,1.38,28.94,2.66,43.48,3.1
		C766.97,400.08,767.22,400.04,767.49,400.01z M367.33,370.68h41.05l2.23-8.29h-31.36c-2.72,0-4.25-2.23-3.55-4.88l5.09-18.96
		c0.7-2.72,3.48-4.88,6.2-4.88h31.36l2.23-8.36h-42.3c-5.16,0-10.45,4.18-11.85,9.34l-6.83,25.51
		C358.06,365.94,361.47,370.68,367.33,370.68z M413.25,351.03l2.23-8.29h-26.06l-7.39,8.29H413.25z M432.62,370.68l24.53-30.8
		l5.85,22.51h-19.72l2.93,8.29h34.29l-11.78-45.37h-17.07l-36.1,45.37H432.62z M499.79,370.68h26.83l2.23-8.36h-21.12
		c-2.72,0-4.32-2.16-3.55-4.88l8.57-32.2h-15.33l-8.29,30.87C487.04,364.13,491.78,370.68,499.79,370.68z M543.97,370.68h39.86
		l2.23-8.36h-30.18c-2.65,0-4.25-2.16-3.55-4.88l5.09-18.96c0.7-2.72,3.48-4.88,6.2-4.88h30.11l2.23-8.36h-41.05
		c-5.16,0-10.45,4.18-11.85,9.34l-6.83,25.51C534.7,365.94,538.19,370.68,543.97,370.68z M595.95,358.62l5.71-21.32
		c1.74-6.62,8.57-12.06,15.19-12.06h29.34c6.62,0,10.52,5.44,8.78,12.06l-5.72,21.32c-1.81,6.69-8.64,12.06-15.26,12.06h-29.27
		C598.04,370.68,594.14,365.32,595.95,358.62z M615.19,362.32h12.82c2.72,0,5.51-2.16,6.2-4.88l5.09-18.96
		c0.7-2.72-0.91-4.88-3.55-4.88h-12.89c-2.72,0-5.44,2.16-6.2,4.88l-5.02,18.96C610.87,360.16,612.47,362.32,615.19,362.32z
		 M684.52,325.31h-15.33l-12.13,45.37h15.33L684.52,325.31z M701.6,333.68c1.81,0,2.93,1.46,2.44,3.28l-9.06,33.73h15.4l9.2-34.43
		c1.6-6.06-1.95-10.94-8.01-10.94h-20.21l-7.39,8.36H701.6z M754.9,370.68h26.83l2.23-8.36h-21.12c-2.72,0-4.32-2.16-3.55-4.88
		l8.57-32.2h-15.33l-8.29,30.87C742.14,364.13,746.88,370.68,754.9,370.68z M806.46,357.44l8.57-32.2H799.7l-8.29,30.87
		c-2.09,8.01,2.65,14.57,10.66,14.57h26.83l2.23-8.36h-21.12C807.3,362.32,805.7,360.16,806.46,357.44z M894.97,325.24h-20.21
		l-7.39,8.36h15.54c2.3,0,3.69,1.88,3.07,4.18l-1.81,6.69c-0.63,2.3-2.93,4.18-5.23,4.18h-18.47l6.27-23.42h-15.4l-12.13,45.44
		h15.33l3.69-13.73h26.48c6.34,0,12.82-5.09,14.57-11.43l2.79-10.52C903.54,329.63,900.33,325.24,894.97,325.24z M340.84,95.76
		c5.06,2.44,10.16,4.78,15.26,7.14c9.14,4.24,18.29,8.47,27.43,12.71c-14.48-10.88-29.34-21.09-44.14-31.37
		c-1.34-0.93-2.27-0.4-3.36,0.17c-8.37,4.39-16.74,8.78-25.1,13.18c-1.21,0.64-2.36,1.2-2.33,2.98c0.09,5.98,0.03,11.96,0.03,18.43
		c8.76-3.37,17.06-6.49,25.29-9.79c2.59-1.04,4.78-1.09,7.38,0.15c6.86,3.28,13.89,6.23,20.85,9.31c0.09-0.17,0.17-0.34,0.26-0.5
		c-7.16-4.47-14.24-9.09-21.53-13.34c-2.93-1.7-3.73-3.77-3.7-6.97C337.21,94.47,338.44,94.6,340.84,95.76z M500.54,157.9
		l-38.65,144.66h-64.42l37.77-141.73c2.05-7.61-2.34-13.76-9.96-13.76h-40.91L251.15,372.42c-5,8.46-13.85,13.51-23.68,13.53h-0.04
		c-9.82,0-18.67-5.03-23.69-13.47L83.54,170.34l2.24-1.32c3.87-2.28,7.27-0.93,9.52-0.04c0.6,0.24,1.18,0.47,1.66,0.59
		c13.44,3.53,27.08,7.2,40.27,10.75c9.05,2.44,18.28,4.92,27.54,7.38c0.73,0.41,1.59,0.69,2.57,0.77c0.18,0.02,0.35,0.03,0.53,0.05
		c4.61,1.22,9.22,2.43,13.81,3.63v-1.29l0.03,0.04c-0.01-12.46-0.01-24.91-0.03-37.37c0-2.62,0.77-3.86,3.18-4.81
		c13.14-5.17,26.23-10.46,39.28-15.83c2.02-0.83,3.56-0.67,5.36,0.45c10.12,6.31,20.28,12.57,30.48,18.76
		c1.73,1.05,2.38,2.22,2.38,4.26c-0.04,40.99-0.04,81.98,0,122.97l11.84-14.76c0.04-55.05,0.04-110.09,0.04-165.14
		c0-25.4,0.01-50.8-0.03-76.21c0-1.44,0.43-2.97-0.55-4.49c-4.42,2.54-5.42,6.12-5.4,10.81c0.18,37.76,0.11,75.52,0.05,113.28
		c0,1.28,0.97,3.69-0.96,3.72c-1.9,0.03-1.22-2.39-1.22-3.78c-0.03-37.07-0.03-74.15-0.03-111.22v-4.62
		c-6.09,3.07-8.21,6.35-8.2,12.31c0,28.01,0,56.02,0,84.03c0,0.82,0.03,1.65-0.03,2.47c-0.06,0.92,0.08,2.12-1.36,2
		c-1.17-0.1-0.89-1.18-0.93-1.93c-0.06-1.1-0.03-2.2-0.03-3.29c0-27.05,0-54.1,0-81.15V36.6c-4.2,3.42-7.46,5.89-7.39,11.73
		c0.35,27.18,0.18,54.37,0.09,81.56c0,1.52,1.18,4.43-0.9,4.4c-2.5-0.03-1.51-3.06-1.52-4.8c-0.06-26.23-0.04-52.45-0.05-78.68
		c0-1.32,0-2.64,0-4.65c-3.77,2.75-5.83,5.1-5.78,9.65c0.27,22.93,0.12,45.86,0.12,68.79v4.8c-2.98-0.44-4.32-1.62-4.31-4.7
		c0.08-24.3,0.05-48.61-0.02-72.91c-0.01-1.95,0.59-3.32,1.98-4.66c11.42-11.1,22.8-22.24,34.1-33.46c1.61-1.6,2.78-1.87,4.92-0.86
		c20.56,9.75,41.17,19.4,61.82,28.96c2.54,1.18,3.67,2.47,3.59,5.47c-0.24,9.29-0.09,18.59-0.09,28.69
		c-2.63-2.4-4.67-1.75-6.98-0.51c-10.38,5.59-20.8,11.12-31.32,16.43c-2.72,1.37-3.58,2.97-3.58,5.99
		c0.06,44.7,0.08,89.41,0.1,134.11l8.26-10.3c0-1.83-0.01-3.65-0.03-5.46c-0.01-1.54,0.94-2.12,2.07-2.71
		c2.59-1.36,5.19-2.72,7.78-4.07l8.58-10.7c-5.18,1.97-10.39,3.9-15.52,6c-2.63,1.07-2.97,0.29-2.91-2.1c0.13-4.8,0.15-9.61,0-14.41
		c-0.06-1.93,0.6-2.95,2.29-3.81c8.3-4.24,16.55-8.59,24.79-12.95c1.4-0.74,2.54-1.25,4.1-0.17c1.98,1.38,3.96,2.76,5.94,4.13
		l3.63-4.53c-2.59-1.14-5.17-2.3-7.73-3.51c-2.64-1.24-4.91-1.44-7.71-0.26c-6.81,2.87-13.79,5.35-20.72,7.97
		c-1.38,0.52-2.68,1.39-4.53,1.11c0-5.89,0.06-11.76-0.04-17.64c-0.03-1.74,0.96-2.38,2.21-3.04c8.38-4.39,16.78-8.75,25.11-13.22
		c1.52-0.82,2.59-0.81,4.04,0.19c6.88,4.78,13.78,9.54,20.68,14.3l13.34-16.64c-10.5-4.9-20.99-9.81-31.53-14.62
		c-1.49-0.68-3.17-2.86-4.96-0.96c-1.36,1.45,0.03,6.96,1.8,8.08c6.48,4.1,13.01,8.12,19.51,12.19c0.74,0.46,1.42,1.02,1.82,2.09
		c-6.57-2.93-13.18-5.78-19.71-8.82c-2.29-1.07-4.24-1.04-6.6-0.09c-8.35,3.36-16.8,6.47-25.71,9.87c0-6.49,0.05-12.47-0.03-18.44
		c-0.03-1.8,1.2-2.31,2.39-2.94c8.24-4.33,16.5-8.62,24.72-13c1.6-0.85,2.78-0.99,4.42,0.16c11.79,8.21,23.63,16.35,35.47,24.49
		l22.98-28.66l4.46,3.08l0.58-0.66h63.25C492.34,111.92,507.57,132.42,500.54,157.9z M196.24,200.58c0.05-6.73,0.05-6.73-5.62-4.47
		c-1.09,0.44-2.16,0.93-3.26,1.35l6.97,8.09C196.01,204.58,197.03,203.2,196.24,200.58z M209.7,209.87c0.01-6.29,0.01-6.29-5.48-4.1
		c-1.27,0.51-2.55,0.97-3.8,1.53c-0.71,0.32-1.37,1.59-1.86,3.15l0.41,0.47l-0.37,1.19c0.53,2.02,1.06,4.05,1.59,6.08
		c2.83-1.01,5.71-1.95,8.38-3.29C210.71,213.84,209.3,211.41,209.7,209.87z M224.57,247.53c0.44-3.51-0.71-4.48-4.01-2.78
		c-2.18,1.12-4.56,1.85-6.83,2.79c-1.02,0.42-2.09,0.89-2.1,2.23c-0.03,2.96-1.35,6.53,0.7,8.64c1.25,1.29,4.11-1.16,6.27-1.84
		c0.39-0.12,0.76-0.32,1.15-0.43c3.55-0.98,6.07-2.67,4.82-6.31C224.56,248.62,224.5,248.07,224.57,247.53z M212.27,263.64
		c0.85,3.17,1.7,6.33,2.55,9.48c1.05-0.31,2.35-0.8,4-1.44c3.36-1.31,7.22-2.03,5.73-6.47c-0.11-7.2,0.87-7.08-5.77-4.51
		c-1.66,0.64-3.25,1.49-4.94,2C213.13,262.92,212.63,263.23,212.27,263.64z M224.57,293.12c0.43-3.54-0.81-4.46-4.06-2.79
		c-0.3,0.15-0.62,0.28-0.92,0.42c0.04,0.15,0.08,0.31,0.12,0.46c0.86,3.18,1.71,6.35,2.57,9.53c2-0.94,3.33-2.29,2.27-5.32
		C224.56,294.21,224.5,293.66,224.57,293.12z M209.69,240.28c0-5.96,0-6.31-4.82-4.35c0.87,3.29,1.75,6.58,2.62,9.86
		c0.35-0.16,0.71-0.3,1.05-0.47C210.7,244.24,209.3,241.82,209.69,240.28z M224.62,309.39c-0.02-2.63-0.18-3.86-1.12-4.16
		C223.87,306.61,224.25,308,224.62,309.39z M209.7,254.03c-0.01-2.65-0.14-3.8-1.06-3.96C208.99,251.39,209.34,252.71,209.7,254.03z
		 M209.69,224.89c0-6.08,0-6.08-5.3-3.97c-1.02,0.41-2.04,0.8-3.05,1.22c-0.03,0.01-0.07,0.04-0.1,0.06
		c0.87,3.31,1.74,6.63,2.62,9.94c1.67-0.63,3.32-1.31,4.88-2.15C210.73,228.9,209.27,226.43,209.69,224.89z M350.86,168.97
		l6.22-7.76c-4.01-1.86-8.03-3.72-12.04-5.59c-0.75-0.35-1.46-0.88-2.24-1.01c-1.82-0.31-3.41-3.13-5.32-1.11
		c-1.52,1.61,0.12,6.98,2.18,8.29C343.42,164.16,347.16,166.52,350.86,168.97z M337.21,186l3.02-3.76
		c-2.13-0.94-3.02-0.68-3.06,2.51C337.16,185.18,337.18,185.6,337.21,186z M227.45,319.73c0.21,0.7,0.43,1.44,0.69,2.27l1.8-2.24
		C229.1,319.75,228.28,319.75,227.45,319.73z M216.76,276.66c-0.3,0.12-0.6,0.23-0.89,0.34c0.89,3.31,1.79,6.62,2.68,9.91
		c1.26-0.5,2.54-0.96,3.81-1.42c1.48-0.53,2.08-1.39,2.24-2.99C225.47,273.42,225.34,273.38,216.76,276.66z M224.56,204.06
		c0-6.49,0-6.49-5.31-4.34c-1.64,0.67-3.24,1.51-4.93,1.99c-2.05,0.59-2.73,1.79-2.84,3.86c-0.47,8.45-0.47,8.46,7.31,5.42
		C222.33,209.62,226.1,208.57,224.56,204.06z M211.43,145.3c0.04,9.82-0.25,7.67,7.02,5c3.7-1.36,7.66-2.35,6.09-7.12
		c0.03-7.35,0.12-6.32-5.33-4.22c-1.53,0.59-3,1.4-4.58,1.83C212.24,141.44,211.42,142.88,211.43,145.3z M224.57,158.5
		c0-6.47,0-6.46-5.28-4.34c-1.65,0.66-3.28,1.36-4.97,1.91c-1.92,0.63-2.83,1.72-2.84,3.87c-0.01,10.22-0.36,8.34,7.29,5.43
		C222.37,164,226.07,162.99,224.57,158.5z M218.54,180.71c3.64-1.42,7.54-2.44,6.02-7.09c-0.08-6.87,0.64-6.64-5.22-4.33
		c-1.52,0.6-2.98,1.37-4.54,1.82c-2.46,0.71-3.38,2.14-3.41,4.75C211.29,183.64,211.16,183.58,218.54,180.71z M218.77,195.76
		c3.56-1.36,7.3-2.33,5.78-6.84c0-6.51,0-6.51-5.27-4.36c-1.77,0.72-3.51,1.5-5.32,2.11c-1.83,0.61-2.42,1.78-2.52,3.66
		C211,198.84,210.92,198.76,218.77,195.76z M218.83,226.15c3.64-1.4,7.23-2.5,5.73-6.95c0-6.33,0-6.33-5.32-4.21
		c-1.78,0.71-3.56,1.44-5.36,2.08c-1.61,0.57-2.28,1.59-2.44,3.34C210.68,229.05,210.9,229.18,218.83,226.15z M219.01,241.29
		c3.43-1.35,7.06-2.33,5.55-6.66c0-1.21-0.05-1.76,0.01-2.3c0.38-3.4-0.57-4.6-3.98-2.77c-2.16,1.16-4.52,1.96-6.84,2.77
		c-1.51,0.53-2.07,1.44-2.24,3C210.53,243.97,211.1,244.41,219.01,241.29z M209.41,189.47c-0.22-0.25-0.76-0.5-1.01-0.4
		c-3.19,1.23-6.52,2.24-9.48,3.9c-1.93,1.08-0.55,3.57-0.92,5.13c0,6.04,0,6.05,5.37,3.89c1.15-0.46,2.29-0.93,3.42-1.42
		C209.18,199.53,211.11,191.44,209.41,189.47z M209.68,179.32c-0.01-6.12-0.01-6.12-5.61-3.85c-1.39,0.57-2.82,1.08-4.17,1.73
		c-1.65,0.8-2.86,9.84-1.5,10.87c0.19,0.15,0.56,0.24,0.78,0.16c3.18-1.22,6.49-2.23,9.48-3.82
		C210.71,183.33,209.3,180.88,209.68,179.32z M209.7,164.21c0.01-6.27,0.01-6.27-5.6-3.98c-1.39,0.57-2.81,1.09-4.16,1.75
		c-1.67,0.82-2.89,9.77-1.52,10.88c0.19,0.16,0.56,0.29,0.76,0.21c3.19-1.23,6.48-2.26,9.49-3.85
		C210.74,168.13,209.25,165.69,209.7,164.21z M198.31,157.49c0.23,0.24,0.78,0.45,1.05,0.34c3.17-1.23,6.49-2.24,9.42-3.91
		c1.89-1.08,0.53-3.56,0.89-5.13c0-5.94,0-5.94-5.44-3.75c-1.27,0.51-2.55,0.98-3.8,1.54C198.44,147.48,196.78,155.92,198.31,157.49
		z M183.11,157.98c0,1.33,0.07,2.02-0.01,2.69c-0.41,3.24,0.91,3.74,3.64,2.46c2.21-1.04,4.48-1.99,6.8-2.75
		c2.02-0.66,2.66-1.88,2.75-3.93c0.4-8.52,0.47-8.49-7.34-5.32C185.53,152.53,181.52,153.37,183.11,157.98z M183.12,172.98
		c0.01,6.74,0.01,6.74,5.5,4.5c1.77-0.72,3.52-1.49,5.32-2.14c1.44-0.52,2.38-1.35,2.28-2.97c-0.17-2.67,1.29-6.15-0.74-7.8
		c-1.78-1.45-4.41,1.18-6.69,1.92C185.38,167.6,181.51,168.48,183.12,172.98z M183.26,192.7l1.16,1.35c0.82,0.03,2.14-0.52,4.29-1.4
		c1.64-0.67,3.26-1.39,4.93-1.96c1.77-0.6,2.5-1.66,2.63-3.6c0.57-8.63,0.5-8.7-7.44-5.54c-3.5,1.39-7.3,2.39-5.75,6.9
		C183.1,190.43,183.11,191.8,183.26,192.7z"/>
	<path d="M995.8,168.44c-2.08,18.93-8.54,36.46-17.55,53.05c-15.79,29.07-35.7,54.37-58.24,77.19h-100.2
		c0.37-0.3,0.74-0.61,1.11-0.91c-2.86,1.11-5.79,2-8.74,2.64h-15.47c-1.36,0-2.42,0.46-3.2,1.16H635.46
		c14.69-11.13,28.61-23.3,43.08-34.72h102.25c6.94,0,14.47-5.79,16.49-13.02l4.63-17.65c1.74-6.94-2.31-12.73-9.55-12.73h-90.84
		c-25.75,0-41.08-21.12-34.14-46.87l4.63-17.07c6.65-25.75,33.27-46.58,59.02-46.58h160.56l-9.26,34.72H751.86
		c-7.23,0-14.47,5.79-16.49,13.02l-4.05,15.04c-2.02,7.23,2.31,13.02,9.55,13.02h90.84c25.75,0,41.08,20.83,34.14,46.58L860.63,255
		c-1.15,4.22-2.84,8.33-4.97,12.24c8.69-8.36,17.14-17.06,25.31-26.18c21.48-23.99,39.28-50.5,46.97-82.42
		c9.63-39.97-6.31-72.49-43.63-89.86c-6.32-2.94-12.84-5.43-19.27-8.12c31.87,1.42,62.55,6.74,89.73,23.99
		C985.44,104.11,999.82,131.84,995.8,168.44z M604.79,111.92h-65.01l-30.75,35.14h54.17c7.61,0,12.3,6.15,10.25,13.76l-38.07,141.73
		h64.42l38.95-144.66C645.49,132.42,630.26,111.92,604.79,111.92z"/>
	<path d="M669.42,266.86h-26.33l-7.25,27.19c4.77-3.69,9.49-7.44,14.15-11.26C656.45,277.49,662.89,272.13,669.42,266.86z"/>
</g>
</svg>
