<?xml version="1.0" encoding="utf-8"?>
<!-- Generator: Adobe Illustrator 26.5.0, SVG Export Plug-In . SVG Version: 6.00 Build 0)  -->
<svg version="1.1" id="Layer_1" xmlns="http://www.w3.org/2000/svg" xmlns:xlink="http://www.w3.org/1999/xlink" x="0px" y="0px"
	 viewBox="0 0 1080 271" style="enable-background:new 0 0 1080 271;" xml:space="preserve">
<style type="text/css">
	.st0{fill:#0071BC;}
	.st1{fill:#C42760;}
	.st2{fill:#662D91;}
	.st3{fill:#EFAD0A;}
	.st4{fill:#026793;}
	.st5{fill:#ED8014;}
	.st6{fill:#D80923;}
	.st7{fill:#1B1464;}
	.st8{fill:#C1272D;}
	.st9{fill:#FFFFFF;}
</style>
<g>
	<path d="M252.51,43.77c-1.14-2.46-2.52-4.74-4.06-6.87c-0.56,0.49-1.14,1.02-1.78,1.62c-3.2,3.05-5.77,6.87-7.85,11.66
		c-2.73,6.29-4.02,12.52-4.68,18.84l41.69,89.4h30.16L252.51,43.77z"/>
	<path d="M214.21,20.07c-16.07,0-30.4,9.13-37.19,23.7l-49.14,105.39c0.08,0.05,0.16,0.11,0.21,0.19c0.04,0.06,0.09,0.12,0.13,0.19
		c0.15,0.19,0.33,0.34,0.51,0.51c0.98,0.25,1.9,0.56,2.78,0.87c0.63,0.22,1.26,0.45,1.9,0.63c6.24,1.78,12.33,1.16,18.12-1.84
		c4.3-2.23,7.81-5.49,11.01-10.2l6.22-13.33c0.25-0.84,0.49-1.69,0.72-2.58c1.46-5.67,2.22-10.6,2.54-16.47
		c0.17-3.11,0.19-6.28,0.21-9.36c0.02-3.31,0.04-6.74,0.25-10.18c0.19-3.24,0.63-6.77,1.3-10.51c0.42-2.32,0.89-4.8,1.72-7.35
		c0.63-1.94,1.42-3.77,2.32-5.79c0.39-0.86,0.8-1.68,1.22-2.48c0.42-0.8,0.87-1.59,1.34-2.37c0.47-0.78,0.96-1.55,1.47-2.31
		c0.51-0.76,1.04-1.51,1.6-2.24c2.39-3.2,4.46-5.36,6.14-6.41c1.28-0.8,3.3-1.49,5.81-2.3c0.52-0.17,0.98-0.32,1.34-0.44
		c4.16-1.45,8.39-2.81,12.48-4.14l5.12-1.66c3.25-1.07,6.61-2.17,9.96-3.04l2.29-0.6c1.73-0.79,5.06-1.76,10.95-3.37
		c1.17-0.32,2.14-0.59,2.71-0.76c0.68-0.2,1.37-0.41,2.07-0.62C234.87,24.15,224.94,20.07,214.21,20.07z"/>
	<path d="M241.2,35c-2.45,0.73-12.12,3.19-13.64,4.18c-2.28,1.47-5.2,5.18-6.68,7.41c-7.67,11.56-9.82,24.92-10.88,37.45
		c-0.26,3.04-0.33,6.06-0.59,9.1c-1.29,14.77-4.15,30.34-14.29,43.45c-1.17,1.52-2.51,2.94-3.82,4.35
		c-6.05,6.56-14.13,12.12-22.36,15c2.44-1.45,4.85-2.85,7.11-4.61c7.76-6.04,12.71-14.56,15.92-23.19
		c2.9-7.79,4.18-15.77,5.33-23.67c2.47-16.95,4.48-34.11,14.39-50c3.47-5.56,7.92-10.89,13.44-14.71
		c-4.04,1.05-8.12,2.46-12.13,3.76c-5.07,1.64-10.13,3.26-15.18,5.01c-1.61,0.56-5.12,1.57-6.48,2.42
		c-1.75,1.09-4.01,3.94-5.25,5.59c-0.52,0.69-1.02,1.39-1.5,2.1c-0.48,0.71-0.94,1.43-1.38,2.16c-0.44,0.73-0.86,1.47-1.25,2.22
		c-0.4,0.75-0.77,1.5-1.12,2.27c-0.8,1.81-1.59,3.61-2.2,5.47c-0.75,2.3-1.19,4.59-1.61,6.91c-0.6,3.36-1.05,6.78-1.25,10.12
		c-0.39,6.54-0.1,12.98-0.46,19.52c-0.32,5.96-1.11,11.16-2.64,17.12c-1.48,5.75-3.58,11.16-7.02,16.39
		c-3.29,4.99-7.23,9.05-12.61,11.84c-6.08,3.15-12.19,3.83-18.06,2.69c0.72,0.46,1.44,0.93,2.14,1.42c0.27,0.19,0.51,0.4,0.77,0.6
		c1.45,0.56,2.94,1.11,4.11,2.16c0.98,0.87,1.65,2.04,2.26,3.18c0.07,0.14,0.12,0.28,0.15,0.41c0.01,0.01,0.01,0.01,0.02,0.02
		c6.35,2.09,13.29,3.02,20.17,2.58c2.25-0.14,4.5-0.51,6.76-0.92c0.4-0.07,0.81-0.14,1.21-0.22c0.4-0.08,0.81-0.16,1.21-0.25
		c0.4-0.09,0.81-0.18,1.21-0.27c0.4-0.09,0.81-0.19,1.21-0.29c0.4-0.1,0.8-0.21,1.21-0.32c0.4-0.11,0.8-0.22,1.2-0.34
		c0.4-0.12,0.8-0.24,1.2-0.37c0.4-0.13,0.8-0.26,1.2-0.39c0.4-0.13,0.79-0.27,1.19-0.41c0.4-0.14,0.79-0.29,1.19-0.43
		c0.39-0.15,0.79-0.3,1.18-0.46c0.39-0.16,0.78-0.32,1.17-0.48c0.39-0.16,0.78-0.33,1.17-0.5c0.39-0.17,0.78-0.35,1.16-0.52
		c0.39-0.18,0.77-0.36,1.15-0.55c0.38-0.19,0.77-0.38,1.15-0.57c0.38-0.19,0.76-0.39,1.14-0.59c0.38-0.2,0.75-0.4,1.13-0.61
		c0.37-0.21,0.75-0.42,1.12-0.63c0.37-0.21,0.74-0.43,1.11-0.65c0.37-0.22,0.73-0.45,1.1-0.67c0.36-0.23,0.73-0.46,1.09-0.69
		c0.36-0.23,0.72-0.47,1.08-0.71c0.36-0.24,0.71-0.48,1.06-0.73c0.35-0.25,0.7-0.5,1.05-0.75c0.35-0.25,0.7-0.51,1.04-0.77
		c0.34-0.26,0.69-0.52,1.03-0.79c0.34-0.27,0.68-0.53,1.01-0.81s0.67-0.55,1-0.82c0.33-0.28,0.66-0.56,0.98-0.84
		c0.33-0.28,0.65-0.57,0.97-0.86s0.64-0.58,0.95-0.88c14.4-13.62,20.72-29.45,22.56-47.21c1.72-16.63-0.81-33.27,6.4-49.88
		c1.95-4.5,4.52-8.66,8.23-12.2c1.24-1.18,2.56-2.36,3.95-3.38c1.01-0.74,2.64-1.35,3.46-2.25C248.29,32.84,244.74,33.95,241.2,35z"
		/>
	<path d="M1009.38,158.21h-27.39V52.45h27.39V158.21z"/>
	<path d="M401.96,152.07c8.54,15.67,10.85,30.51,5.4,42.86c-16.52,37.5-98.24,37.79-182.51,0.66
		C140.59,158.45,85.67,97.94,102.19,60.44c5.44-12.35,17.94-20.66,35.28-24.93c-7.44,0.25-14.48,0.92-21.04,2.01
		c-19,3.17-32.11,21.04-29.43,40.12c1.68,11.94,6.08,26.68,15.9,43.19c5.89,9.9,14.62,18.04,22.78,26.34
		c16.41,16.59,34.81,31.32,54.46,44.19c19.68,12.83,40.51,24.01,62.19,33.34c-22.13-8.21-43.6-18.35-64.01-30.43
		c-20.39-12.08-39.72-26.14-57.27-42.33c-8.77-8.12-17.07-16.71-24.63-26.15c-7.54-9.41-14.25-19.88-18.53-31.67
		c-0.58-1.45-0.98-2.97-1.48-4.46c-0.45-1.5-0.82-3.04-1.23-4.56c-0.72-3.12-1.21-6.28-1.48-9.47c-0.53-6.37-0.16-12.82,1.18-19.15
		c0.07-0.34,0.16-0.67,0.23-1.01c-4.08,3.89-7.29,8.34-9.5,13.35c-19.51,44.27,45.32,115.7,144.8,159.54
		c99.49,43.84,195.95,43.49,215.46-0.78C435.13,206.58,425.4,179.46,401.96,152.07z"/>
	<path d="M410.58,155.93h-37.05c-10.84,0-19.53-1.22-26.07-3.66c-8.3-3.12-14.26-8.48-17.87-16.09c-1.37-2.92-2.32-5.73-2.86-8.41
		c-0.54-2.68-0.81-5.78-0.81-9.29V53.56h26.36v64.04c0,2.92,0.34,5.48,1.03,7.68c0.68,2.19,1.9,4.36,3.66,6.51
		c2.44,3.12,5.27,5.16,8.49,6.14c3.22,0.97,7.32,1.46,12.3,1.46h32.81V155.93z"/>
	<path d="M445.88,155.93h-22.7V53.56h22.7V155.93z M518.81,53.56l-45.55,50.45l44.08,51.92h-31.78l-38.96-52.06l40.42-50.31H518.81z
		"/>
	<path d="M759.96,155.93h-32.51l-49.5-75.72v75.72h-24.46V53.56h32.95l48.62,76.74V53.56h24.9V155.93z"/>
	<path d="M858.24,155.93h-45.25c-4.59,0-9.13-0.63-13.62-1.9c-8.69-2.63-15.58-8.67-20.65-18.13c-4.59-8.58-6.88-18.57-6.88-29.98
		c0-11.02,2.05-20.77,6.15-29.25c4.49-9.36,10.89-15.75,19.19-19.16c6.44-2.63,13.04-3.95,19.77-3.95h41.01v19.63h-42.62
		c-6.93,0-11.96,3.76-15.08,11.28c-2.44,5.86-3.66,13.52-3.66,22.99c0,8.01,1.56,14.79,4.69,20.36c3.61,6.54,8.69,9.81,15.23,9.81
		h41.74V155.93z"/>
	<path d="M967.2,155.93h-25.34v-41.59H895v41.59h-24.61V53.56H895v42.47h46.87V53.56h25.34V155.93z"/>
	<g>
		<path d="M516.54,226.19h-3.11v-22.5c0-4.26,1.34-7.56,4.01-9.87c2.32-1.98,5.26-2.97,8.83-2.97c3.59,0,6.54,0.99,8.86,2.97
			c2.7,2.33,4.06,5.62,4.06,9.87c0,1.64-0.21,3.21-0.64,4.72c-0.43,1.51-1.05,2.88-1.88,4.12c-0.83,1.24-1.94,2.23-3.33,2.97
			c-1.39,0.74-2.98,1.11-4.77,1.11c-1.88,0-3.6-0.46-5.17-1.36s-2.81-2.2-3.74-3.87v11.71c0,1.06-0.25,1.85-0.76,2.35
			C518.39,225.94,517.6,226.19,516.54,226.19z M526.27,213.49c1.95,0,3.55-0.84,4.8-2.51c1.26-1.67,1.88-4.1,1.88-7.29
			c0-3.15-0.64-5.56-1.92-7.23c-1.28-1.67-2.87-2.5-4.77-2.5c-1.95,0-3.54,0.83-4.77,2.47s-1.85,4.07-1.85,7.25
			c0,3.2,0.61,5.64,1.82,7.3C522.69,212.66,524.29,213.49,526.27,213.49z"/>
		<path d="M562.7,215.71h-6.23v-18.15c0-1.06,0.19-1.98,0.57-2.75c0.38-0.77,0.9-1.38,1.56-1.81s1.39-0.75,2.19-0.95
			s1.67-0.3,2.62-0.3h5.24v1.52c0,1.06-0.53,1.59-1.59,1.59h-1.38c-1.14,0-1.92,0.2-2.34,0.6c-0.42,0.4-0.63,1.19-0.63,2.37V215.71z
			"/>
		<path d="M591,182.85c0.67,0.67,1,1.48,1,2.45s-0.33,1.79-1,2.46s-1.48,1.01-2.45,1.01s-1.78-0.34-2.45-1.01s-1-1.5-1-2.46
			s0.33-1.78,1-2.45s1.48-1,2.45-1S590.33,182.18,591,182.85z M585.44,191.74h3.11c1.06,0,1.85,0.25,2.35,0.76
			c0.51,0.51,0.76,1.29,0.76,2.35v20.86h-6.23V191.74z"/>
		<path d="M621.11,209.78l6.95-16.37c0.26-0.56,0.56-0.98,0.92-1.25c0.35-0.27,0.84-0.41,1.47-0.41h1.67l-10.16,23.97h-2.54
			c-1.61,0-2.81-0.84-3.6-2.51l-9.1-21.46h6.76L621.11,209.78z"/>
		<path d="M664.76,212.6v-1.23c-0.89,1.62-2.11,2.9-3.67,3.84c-1.56,0.93-3.31,1.4-5.24,1.4c-1.72,0-3.27-0.35-4.65-1.05
			s-2.49-1.65-3.34-2.85c-0.85-1.2-1.5-2.56-1.96-4.09c-0.45-1.53-0.68-3.15-0.68-4.88c0-4.3,1.34-7.6,4.01-9.92
			c2.32-1.98,5.26-2.97,8.84-2.97c3.59,0,6.54,0.99,8.86,2.97c2.7,2.33,4.05,5.64,4.05,9.92v11.97h-3.11
			c-1.06,0-1.85-0.25-2.35-0.76C665.01,214.45,664.76,213.66,664.76,212.6z M658.12,213.49c1.96,0,3.56-0.83,4.79-2.49
			s1.85-4.08,1.85-7.27c0-3.17-0.64-5.59-1.92-7.27s-2.87-2.51-4.77-2.51c-1.92,0-3.5,0.83-4.74,2.5c-1.25,1.67-1.87,4.09-1.87,7.28
			c0,3.17,0.63,5.59,1.88,7.25C654.6,212.66,656.19,213.49,658.12,213.49z"/>
		<path d="M699.83,194.86h-4.35v14.77c0,1.17,0.21,1.96,0.63,2.37c0.42,0.4,1.2,0.6,2.34,0.6h1.38c1.06,0,1.59,0.53,1.59,1.59v1.52
			h-5.24c-0.95,0-1.82-0.1-2.62-0.3s-1.53-0.52-2.18-0.95c-0.66-0.43-1.18-1.04-1.56-1.82c-0.38-0.78-0.57-1.7-0.57-2.76v-23.08
			h3.11c1.06,0,1.85,0.25,2.35,0.76s0.76,1.29,0.76,2.35v1.83h5.94v1.52C701.43,194.33,700.9,194.86,699.83,194.86z"/>
		<path d="M721.8,205.29c0,2.69,0.65,4.73,1.94,6.12c1.29,1.39,2.85,2.09,4.67,2.09c2.08,0,3.71-0.77,4.9-2.32
			c0.14-0.19,0.37-0.53,0.69-1.01c0.31-0.48,0.56-0.82,0.75-1c0.19-0.19,0.53-0.37,1.03-0.57s1.11-0.29,1.83-0.29h3.02
			c-0.66,2.16-1.79,3.93-3.4,5.33c-2.32,1.98-5.25,2.97-8.81,2.97c-3.59,0-6.54-0.99-8.86-2.97c-2.7-2.33-4.06-5.63-4.06-9.9
			c0-4.28,1.35-7.59,4.06-9.92c2.32-1.98,5.27-2.97,8.86-2.97c3.56,0,6.49,0.99,8.81,2.97c2.69,2.29,4.03,5.59,4.03,9.92
			c0,0.71-0.02,1.22-0.05,1.54H721.8z M721.8,202.17h13.18c0-2.8-0.61-4.87-1.83-6.2c-1.22-1.34-2.8-2-4.73-2
			c-0.89,0-1.71,0.15-2.47,0.46c-0.76,0.31-1.46,0.77-2.1,1.4c-0.64,0.63-1.13,1.49-1.5,2.57S721.8,200.74,721.8,202.17z"/>
		<path d="M782.78,179.38h3.11c1.06,0,1.85,0.25,2.35,0.76s0.76,1.29,0.76,2.35v33.22h-6.23V179.38z"/>
		<path d="M812.84,182.85c0.67,0.67,1,1.48,1,2.45s-0.33,1.79-1,2.46s-1.48,1.01-2.45,1.01s-1.78-0.34-2.45-1.01s-1-1.5-1-2.46
			s0.33-1.78,1-2.45s1.48-1,2.45-1S812.18,182.18,812.84,182.85z M807.28,191.74h3.11c1.06,0,1.85,0.25,2.35,0.76
			c0.51,0.51,0.76,1.29,0.76,2.35v20.86h-6.23V191.74z"/>
		<path d="M860.94,212.6v-8.86c0-3.22-0.31-5.65-0.94-7.3c-0.63-1.65-1.7-2.47-3.21-2.47c-0.82,0-1.51,0.22-2.06,0.65
			c-0.55,0.43-0.99,1.09-1.29,1.98c-0.31,0.89-0.52,1.9-0.65,3.03c-0.13,1.13-0.19,2.51-0.19,4.12v11.97h-6.23v-11.97
			c0-1.61-0.06-2.98-0.19-4.12c-0.13-1.13-0.35-2.14-0.65-3.03c-0.31-0.88-0.74-1.54-1.29-1.98c-0.55-0.43-1.24-0.65-2.06-0.65
			c-1.51,0-2.58,0.83-3.21,2.47s-0.94,4.08-0.94,7.3v11.97h-6.23v-11.97c0-8.59,3.21-12.89,9.63-12.89c2.04,0,3.75,0.47,5.11,1.41
			c1.36,0.94,2.34,2.17,2.96,3.68c0.61-1.51,1.6-2.74,2.96-3.68c1.36-0.94,3.06-1.41,5.11-1.41c6.42,0,9.63,4.3,9.63,12.89v11.97
			h-3.11c-1.06,0-1.85-0.25-2.35-0.76S860.94,213.66,860.94,212.6z"/>
		<path d="M890.04,182.85c0.67,0.67,1,1.48,1,2.45s-0.33,1.79-1,2.46s-1.48,1.01-2.45,1.01s-1.78-0.34-2.45-1.01s-1-1.5-1-2.46
			s0.33-1.78,1-2.45s1.48-1,2.45-1S889.38,182.18,890.04,182.85z M884.48,191.74h3.11c1.06,0,1.85,0.25,2.35,0.76
			c0.51,0.51,0.76,1.29,0.76,2.35v20.86h-6.23V191.74z"/>
		<path d="M919.56,194.86h-4.35v14.77c0,1.17,0.21,1.96,0.63,2.37c0.42,0.4,1.2,0.6,2.34,0.6h1.38c1.06,0,1.59,0.53,1.59,1.59v1.52
			h-5.24c-0.95,0-1.82-0.1-2.62-0.3s-1.53-0.52-2.18-0.95c-0.66-0.43-1.18-1.04-1.56-1.82c-0.38-0.78-0.57-1.7-0.57-2.76v-23.08
			h3.11c1.06,0,1.85,0.25,2.35,0.76s0.76,1.29,0.76,2.35v1.83h5.94v1.52C921.15,194.33,920.62,194.86,919.56,194.86z"/>
		<path d="M941.52,205.29c0,2.69,0.65,4.73,1.94,6.12c1.29,1.39,2.85,2.09,4.67,2.09c2.08,0,3.71-0.77,4.9-2.32
			c0.14-0.19,0.37-0.53,0.69-1.01c0.31-0.48,0.56-0.82,0.75-1c0.19-0.19,0.53-0.37,1.03-0.57s1.11-0.29,1.83-0.29h3.02
			c-0.66,2.16-1.79,3.93-3.4,5.33c-2.32,1.98-5.25,2.97-8.81,2.97c-3.59,0-6.54-0.99-8.86-2.97c-2.7-2.33-4.06-5.63-4.06-9.9
			c0-4.28,1.35-7.59,4.06-9.92c2.32-1.98,5.27-2.97,8.86-2.97c3.56,0,6.49,0.99,8.81,2.97c2.69,2.29,4.03,5.59,4.03,9.92
			c0,0.71-0.02,1.22-0.05,1.54H941.52z M941.52,202.17h13.18c0-2.8-0.61-4.87-1.83-6.2c-1.22-1.34-2.8-2-4.73-2
			c-0.89,0-1.71,0.15-2.47,0.46c-0.76,0.31-1.46,0.77-2.1,1.4c-0.64,0.63-1.13,1.49-1.5,2.57S941.52,200.74,941.52,202.17z"/>
		<path d="M999.44,179.38c1.06,0,1.85,0.25,2.35,0.76s0.76,1.29,0.76,2.35v21.24c0,4.26-1.35,7.56-4.05,9.9
			c-2.32,1.98-5.27,2.97-8.86,2.97c-3.57,0-6.52-0.99-8.84-2.97c-2.67-2.32-4.01-5.62-4.01-9.9c0-1.64,0.21-3.21,0.64-4.71
			c0.43-1.5,1.05-2.86,1.88-4.1s1.94-2.23,3.33-2.97c1.39-0.74,2.98-1.11,4.77-1.11c1.88,0,3.61,0.46,5.17,1.36
			c1.56,0.91,2.81,2.2,3.74,3.87v-16.7H999.44z M996.32,203.74c0-3.2-0.61-5.63-1.83-7.29c-1.22-1.66-2.82-2.49-4.8-2.49
			c-1.95,0-3.54,0.83-4.79,2.5c-1.25,1.67-1.87,4.09-1.87,7.28s0.62,5.61,1.85,7.27c1.23,1.66,2.82,2.49,4.77,2.49
			c1.9,0,3.49-0.83,4.77-2.5C995.68,209.33,996.32,206.91,996.32,203.74z"/>
	</g>
	<g>
		<path d="M612.89,65.75c-0.19-0.31-0.38-0.62-0.58-0.94c-0.03-0.04-0.06-0.09-0.08-0.13c-8.55-13.53-28.22-37.34-28.22-37.34
			s-20.74,25.11-28.88,38.41c-10.63,17.36-12.98,30.15-10.08,42.12c0,0.02,0.01,0.03,0.01,0.05c0.12,0.48,0.24,0.95,0.37,1.42
			c0.06,0.21,0.12,0.42,0.19,0.64c0.01,0.05,0.03,0.1,0.05,0.15c0.07,0.22,0.14,0.44,0.22,0.67c0,0.01,0,0.01,0.01,0.02
			c0.08,0.23,0.16,0.46,0.24,0.7c0.01,0.04,0.03,0.07,0.04,0.11c0.18,0.51,0.39,1.03,0.61,1.57c0,0,0,0.01,0.01,0.01
			c2.71,6.5,8.29,14.9,17.6,20.13c0,0,0,0,0,0c0.27,0.15,0.55,0.31,0.83,0.46c0.01,0,0.01,0.01,0.02,0.01
			c0.28,0.15,0.56,0.29,0.85,0.44c0,0,0.01,0,0.01,0.01c1.46,0.72,2.99,1.37,4.62,1.92c0.02,0.01,0.04,0.01,0.05,0.02
			c0.3,0.1,0.6,0.2,0.9,0.29c0.08,0.02,0.15,0.05,0.23,0.07c0.25,0.07,0.49,0.15,0.74,0.22c0.1,0.03,0.21,0.06,0.31,0.08
			c0.23,0.06,0.45,0.12,0.68,0.18c0.12,0.03,0.24,0.06,0.36,0.09c0.22,0.05,0.43,0.1,0.65,0.15c0.13,0.03,0.27,0.06,0.4,0.09
			c0.21,0.04,0.42,0.09,0.63,0.13c0.14,0.03,0.28,0.05,0.43,0.08c0.21,0.04,0.42,0.08,0.63,0.11c0.15,0.03,0.3,0.05,0.45,0.07
			c0.21,0.03,0.42,0.06,0.63,0.09c0.15,0.02,0.31,0.04,0.46,0.06c0.21,0.03,0.43,0.05,0.64,0.08c0.11,0.01,0.22,0.03,0.33,0.04
			c0.01,0,0.03,0,0.04,0c0.03,0,0.07,0.01,0.1,0.01c0.22,0.02,0.44,0.04,0.66,0.06c0.12,0.01,0.24,0.02,0.36,0.03
			c0.02,0,0.04,0,0.06,0c0.02,0,0.03,0,0.05,0c0.23,0.02,0.46,0.03,0.69,0.05c0.13,0.01,0.25,0.02,0.38,0.02c0.03,0,0.05,0,0.08,0
			c0.26,0.01,0.52,0.02,0.78,0.03c0.12,0,0.23,0.01,0.35,0.01c0.01,0,0.03,0,0.04,0c0.39,0.01,0.79,0.02,1.19,0.02
			c0.4,0,0.8-0.01,1.19-0.02c0.13,0,0.26-0.01,0.39-0.01c0.26-0.01,0.52-0.02,0.78-0.03c0.15-0.01,0.3-0.02,0.45-0.03
			c0.23-0.01,0.46-0.03,0.69-0.05c0.16-0.01,0.31-0.03,0.47-0.04c0.22-0.02,0.44-0.04,0.66-0.06c0.16-0.02,0.31-0.03,0.47-0.05
			c0.21-0.02,0.43-0.05,0.64-0.08c0.15-0.02,0.31-0.04,0.46-0.06c0.21-0.03,0.42-0.06,0.63-0.09c0.15-0.02,0.3-0.05,0.45-0.07
			c0.21-0.04,0.42-0.07,0.63-0.11c0.14-0.03,0.29-0.05,0.43-0.08c0.21-0.04,0.42-0.09,0.63-0.13c0.13-0.03,0.27-0.06,0.4-0.09
			c0.22-0.05,0.43-0.1,0.65-0.15c0.12-0.03,0.24-0.06,0.36-0.09c0.23-0.06,0.46-0.12,0.68-0.18c0.1-0.03,0.21-0.06,0.31-0.08
			c0.25-0.07,0.5-0.14,0.75-0.22c0.07-0.02,0.15-0.04,0.22-0.07c0.31-0.09,0.61-0.19,0.91-0.29c0.01,0,0.03-0.01,0.04-0.01
			c15.51-5.25,23.13-19.05,25.29-26.81C626.06,96.94,623.96,83.82,612.89,65.75z"/>
	</g>
	<g>
		<path d="M638.25,53.14l-26.7,0.18l0,0.49c2.01,2.82,3.85,5.51,5.37,7.91l0.1,0.15c0.21,0.33,0.42,0.66,0.62,0.99
			c11.26,18.39,14.44,33.19,10.3,47.98c-2.68,9.64-10.66,22.37-24.55,28.82c-4.53,2.77-11.23,4.2-20.12,4.26
			c-4.24,0.03-8.03-0.52-11.4-1.63c-0.12-0.03-0.24-0.06-0.36-0.09l-0.36-0.1c-0.3-0.08-0.58-0.17-0.86-0.25l-0.25-0.07
			c-0.35-0.11-0.7-0.22-1.04-0.34c-1.87-0.63-3.66-1.37-5.37-2.22c-0.32-0.16-0.63-0.32-0.93-0.48l-0.11-0.06
			c-0.31-0.17-0.62-0.33-0.92-0.5c-12.2-6.87-17.96-17.99-19.93-22.65l-0.24-0.58c-0.19-0.46-0.36-0.91-0.52-1.34l-0.07-0.19
			c-0.07-0.19-0.13-0.37-0.2-0.56l-0.15-0.33l-0.06-0.28c-0.05-0.15-0.1-0.3-0.14-0.45l-0.03-0.11c-0.1-0.33-0.18-0.59-0.25-0.85
			c-0.14-0.52-0.28-1.05-0.41-1.58c-3.47-14.32-0.16-28.61,10.72-46.39c1.66-2.7,3.8-5.86,6.16-9.17l-27.46,0.18l0.47,71.1
			c0.09,13.83,6.14,23.92,18.16,30.29c9.4,5.03,21.86,7.5,37.37,7.39c15.93-0.11,28.14-2.37,36.65-6.79
			c11.41-6,17.07-16.17,16.97-30.52L638.25,53.14z"/>
	</g>
</g>
</svg>
