<?xml version="1.0" encoding="utf-8"?>
<!-- Generator: Adobe Illustrator 26.5.0, SVG Export Plug-In . SVG Version: 6.00 Build 0)  -->
<svg version="1.1" id="Layer_1" xmlns="http://www.w3.org/2000/svg" xmlns:xlink="http://www.w3.org/1999/xlink" x="0px" y="0px"
	 viewBox="0 0 1080 235.06" style="enable-background:new 0 0 1080 235.06;" xml:space="preserve">
<style type="text/css">
	.st0{fill:#1B1464;}
	.st1{fill:#043E54;}
	.st2{fill:#03958A;}
	.st3{fill:#FFFFFF;}
	.st4{fill:#0358B2;}
</style>
<path d="M216.72,143.27l-42.91-93.44c-4.21-9.16-13.82-14.85-25.09-14.85c-9.22,0-17.34,3.78-22.31,10.26
	c-0.59,0.56-1.11,1.21-1.53,1.95l-44.84,97.57l-3.55,7.74L54.3,200.82h32.07l15.48-33.71h93.76l1.66,3.61l13.82,30.09h32.06
	l-23.95-52.16L216.72,143.27z M145.6,142.79h-32.58l3.01-6.54l32.72-71.18l35.7,77.72H145.6z M207.35,145.71l-0.01-0.02
	c0-0.01,0.01-0.01,0.01-0.02C207.35,145.68,207.35,145.7,207.35,145.71z M358.6,61.04h-54.96v139.77h-30.8V61.04h-54.96V34.98H358.6
	V61.04z M955.1,34.98h-68.23v165.83h30.8v-47.85h37.43c43.59,0,70.6-22.51,70.6-58.99C1025.7,57.25,998.69,34.98,955.1,34.98z
	 M953.68,126.9h-36.01V61.04h36.01c27.01,0,40.98,12.08,40.98,32.93C994.67,114.82,980.69,126.9,953.68,126.9z M496.67,62.08
	c-1.24-1.19-2.47-2.38-3.71-3.56c-2.12-2.04-4.24-4.08-6.37-6.12c-0.14-0.14-0.3-0.27-0.45-0.4c-0.06-0.05-0.17-0.06-0.24-0.01
	c-0.21,0.15-0.42,0.3-0.63,0.45c-2.8,2.07-5.6,4.14-8.4,6.22c-0.11,0.08-0.23,0.17-0.35,0.24c-0.07,0.04-0.16,0.05-0.24,0
	c-0.1-0.06-0.19-0.12-0.28-0.19c-1.91-1.4-3.89-2.71-5.94-3.9c-0.49-0.29-0.99-0.57-1.48-0.86c-0.07-0.04-0.14-0.1-0.21-0.14
	c-0.06-0.04-0.1-0.16-0.08-0.23c0.07-0.25,0.13-0.49,0.2-0.74c0.31-1.16,0.62-2.31,0.94-3.47c0.25-0.94,0.5-1.87,0.76-2.8
	c0.31-1.13,0.6-2.26,0.92-3.38c0.05-0.19,0.09-0.39,0.13-0.58c0-0.02-0.02-0.05-0.04-0.08c-0.07-0.09-0.17-0.14-0.28-0.18
	c-0.85-0.33-1.71-0.65-2.56-0.98c-3.28-1.25-6.57-2.5-9.85-3.75c-0.4-0.15-0.8-0.3-1.21-0.45c-0.09-0.03-0.25,0.03-0.3,0.11
	c-0.08,0.12-0.15,0.24-0.23,0.36c-1.8,2.95-3.59,5.9-5.39,8.85c-0.36,0.59-0.33,0.57-1.03,0.42c-0.06-0.01-0.11-0.03-0.17-0.04
	c-1.22-0.29-2.46-0.54-3.69-0.75c-1.38-0.24-2.76-0.46-4.16-0.59c-0.17-0.02-0.34-0.06-0.51-0.08c-0.07-0.01-0.17-0.11-0.18-0.16
	c-0.06-0.37-0.12-0.73-0.16-1.1c-0.08-0.62-0.13-1.25-0.23-1.87c-0.08-0.48-0.12-0.96-0.19-1.44c-0.09-0.65-0.18-1.3-0.27-1.95
	c-0.08-0.62-0.14-1.25-0.23-1.87c-0.12-0.85-0.23-1.7-0.34-2.55c0-0.03-0.01-0.06-0.02-0.08c-0.01-0.05-0.14-0.15-0.19-0.15
	c-0.11,0-0.23-0.02-0.34-0.02c-1.06,0.03-2.11,0.06-3.17,0.09c-1,0.03-2,0.07-3,0.1c-0.86,0.03-1.71,0.05-2.57,0.07
	c-1.11,0.03-2.23,0.07-3.34,0.11c-0.66,0.02-1.31,0.04-1.97,0.06c-0.08,0-0.17,0.02-0.25,0.04c-0.09,0.02-0.15,0.09-0.18,0.17
	c-0.03,0.08-0.04,0.17-0.06,0.25c-0.14,0.84-0.28,1.69-0.42,2.53c-0.12,0.7-0.23,1.41-0.35,2.11c-0.15,0.93-0.3,1.86-0.45,2.79
	c-0.17,1.01-0.35,2.03-0.49,3.04c-0.03,0.2-0.13,0.32-0.31,0.35c-0.2,0.04-0.39,0.08-0.59,0.11c-1.07,0.17-2.14,0.38-3.2,0.61
	c-1.48,0.32-2.95,0.68-4.4,1.1c-0.16,0.05-0.32,0.11-0.5,0.12c-0.05,0-0.12-0.02-0.15-0.06c-0.16-0.16-0.25-0.38-0.37-0.57
	c-1.43-2.47-2.86-4.94-4.29-7.42c-0.19-0.32-0.37-0.64-0.56-0.96c-0.04-0.07-0.09-0.15-0.13-0.22c-0.09-0.15-0.22-0.2-0.36-0.14
	c-0.34,0.14-0.69,0.29-1.02,0.44c-1.93,0.85-3.86,1.71-5.8,2.57c-1.85,0.82-3.71,1.64-5.56,2.46c-0.18,0.08-0.36,0.16-0.55,0.25
	c-0.08,0.04-0.15,0.08-0.22,0.12c-0.13,0.07-0.19,0.2-0.15,0.36c0.33,1.48,0.66,2.95,1,4.43c0.43,1.89,0.87,3.78,1.3,5.68
	c0.03,0.11,0.03,0.23,0.03,0.34c0,0.05-0.02,0.12-0.06,0.15c-0.14,0.14-0.32,0.24-0.49,0.34c-0.55,0.35-1.12,0.69-1.66,1.05
	c-1.62,1.07-3.21,2.19-4.73,3.39c-0.11,0.09-0.23,0.16-0.35,0.24c-0.06,0.04-0.18,0.03-0.24-0.01c-0.25-0.19-0.51-0.37-0.76-0.56
	c-2.44-1.85-4.87-3.7-7.3-5.55c-0.11-0.09-0.23-0.16-0.35-0.24c-0.06-0.04-0.18-0.02-0.24,0.04c-0.1,0.1-0.21,0.2-0.31,0.3
	c-1.34,1.37-2.68,2.73-4.02,4.1c-1.82,1.86-3.64,3.71-5.46,5.57c-0.1,0.1-0.19,0.21-0.29,0.32c-0.05,0.06-0.06,0.18-0.02,0.24
	c0.11,0.17,0.22,0.33,0.33,0.5c1.8,2.57,3.61,5.14,5.41,7.72c0.11,0.16,0.23,0.33,0.33,0.5c0.04,0.07,0.05,0.16-0.01,0.24
	c-0.06,0.09-0.12,0.19-0.19,0.28c-1.6,2.13-3.07,4.33-4.43,6.62c-0.06,0.1-0.12,0.19-0.19,0.29c-0.05,0.08-0.13,0.12-0.22,0.1
	c-0.25-0.05-0.5-0.11-0.75-0.18c-2.74-0.7-5.47-1.41-8.21-2.12c-0.39-0.1-0.77-0.2-1.16-0.3c-0.15-0.04-0.26,0.02-0.33,0.19
	c-0.05,0.1-0.09,0.21-0.14,0.31c-1.72,4.04-3.44,8.09-5.16,12.13c-0.09,0.21-0.18,0.42-0.27,0.63c-0.03,0.06,0.01,0.19,0.07,0.23
	c0.14,0.1,0.28,0.2,0.42,0.29c2.68,1.7,5.35,3.4,8.03,5.1c0.14,0.09,0.29,0.18,0.43,0.29c0.07,0.05,0.09,0.14,0.09,0.23
	c0,0.06-0.01,0.11-0.02,0.17c-0.34,1.18-0.63,2.37-0.9,3.57c-0.33,1.47-0.6,2.87-0.82,4.2c-0.03,0.2-0.08,0.39-0.14,0.58
	c-0.01,0.05-0.07,0.1-0.12,0.11c-0.36,0.07-0.73,0.13-1.1,0.18c-0.57,0.08-1.13,0.15-1.7,0.23c-0.96,0.14-1.92,0.29-2.88,0.43
	c-0.99,0.14-1.98,0.27-2.97,0.42c-0.4,0.06-0.79,0.12-1.19,0.17c-0.23,0.03-0.45,0.08-0.67,0.12c-0.12,0.02-0.2,0.11-0.2,0.23
	c-0.04,0.83-0.08,1.65-0.11,2.48c-0.04,1.34-0.07,2.68-0.11,4.03c-0.03,1-0.07,2-0.1,3c-0.03,1.17-0.05,2.34-0.11,3.51
	c-0.02,0.31-0.02,0.63-0.02,0.94c0,0.08,0.03,0.17,0.04,0.25c0.01,0.06,0.05,0.1,0.11,0.12c0.41,0.13,0.84,0.17,1.26,0.24
	c0.82,0.14,1.63,0.29,2.45,0.43c1.18,0.2,2.37,0.39,3.55,0.59c0.99,0.17,1.97,0.34,2.96,0.51c0.3,0.05,0.41,0.11,0.44,0.42
	c0.02,0.23,0.06,0.45,0.08,0.68c0.04,0.34,0.06,0.68,0.11,1.02c0.1,0.62,0.14,1.25,0.27,1.87c0.03,0.51,0.19,1.01,0.23,1.52
	c0.21,1.04,0.38,2.08,0.62,3.11c0.02,0.08,0.03,0.17,0.03,0.25c0,0.09-0.02,0.17-0.1,0.23c-0.12,0.08-0.24,0.16-0.36,0.23
	c-1.77,1.05-3.54,2.09-5.31,3.14c-1.11,0.65-2.21,1.31-3.32,1.96c-0.1,0.06-0.2,0.11-0.29,0.18c-0.17,0.12-0.21,0.19-0.15,0.35
	c0.19,0.54,0.39,1.07,0.58,1.61c1.37,3.81,2.75,7.62,4.12,11.44c0.03,0.08,0.06,0.16,0.1,0.24c0.02,0.05,0.17,0.13,0.22,0.12
	c1.53-0.35,3.06-0.7,4.59-1.05c1.81-0.42,3.61-0.84,5.42-1.26c0.17-0.04,0.34-0.07,0.51-0.09c0.08-0.01,0.17,0.03,0.22,0.11
	c0.06,0.09,0.12,0.19,0.17,0.3c1.26,2.4,2.65,4.73,4.18,6.98c0.06,0.09,0.13,0.19,0.18,0.29c0.04,0.07,0.07,0.16,0.01,0.24
	c-0.08,0.12-0.16,0.24-0.24,0.35c-1.99,2.62-3.97,5.23-5.96,7.85c-0.19,0.25-0.38,0.5-0.56,0.76c-0.06,0.08-0.07,0.2,0.03,0.31
	c0.05,0.07,0.11,0.13,0.17,0.2c3.02,3.39,6.04,6.78,9.06,10.18c0.08,0.09,0.16,0.16,0.24,0.24c0.05,0.05,0.18,0.06,0.24,0.03
	c0.24-0.16,0.47-0.32,0.7-0.49c2.6-1.86,5.2-3.73,7.8-5.6c0.19-0.13,0.38-0.26,0.56-0.39c0.06-0.04,0.16-0.03,0.24,0.03
	c0.16,0.13,0.31,0.25,0.46,0.38c0.85,0.72,1.72,1.42,2.6,2.1c1.18,0.91,2.38,1.77,3.62,2.6c0.14,0.1,0.28,0.2,0.42,0.3
	c0.09,0.06,0.14,0.2,0.11,0.3c-0.23,0.85-0.46,1.71-0.7,2.56c-0.76,2.81-1.53,5.62-2.29,8.43c-0.01,0.05-0.02,0.11-0.01,0.17
	c0.01,0.05,0.03,0.13,0.06,0.15c0.2,0.11,0.4,0.22,0.6,0.32c4,1.95,8.01,3.91,12.01,5.86c0.15,0.07,0.31,0.14,0.47,0.21
	c0.06,0.03,0.2-0.01,0.23-0.06c0.14-0.21,0.29-0.43,0.42-0.65c1.76-2.84,3.52-5.68,5.27-8.52c0.12-0.19,0.25-0.38,0.37-0.57
	c0.03-0.05,0.18-0.1,0.23-0.08c0.22,0.07,0.44,0.14,0.65,0.21c2.04,0.65,4.11,1.21,6.2,1.65c0.61,0.13,1.23,0.26,1.84,0.39
	c0.1,0.02,0.22,0.14,0.23,0.23c0.02,0.14,0.03,0.28,0.05,0.42c0.13,0.93,0.25,1.87,0.34,2.81c0.01,0.14,0.04,0.28,0.06,0.42
	c0.03,0.2,0.06,0.4,0.07,0.6c0.02,0.28,0.05,0.57,0.1,0.85c0.03,0.2,0.05,0.4,0.07,0.6c0.03,0.23,0.05,0.45,0.08,0.68
	c0.03,0.26,0.06,0.51,0.09,0.77c0.02,0.17,0.03,0.34,0.06,0.51c0.08,0.65,0.19,1.3,0.25,1.95c0.06,0.65,0.19,1.3,0.23,1.96
	c0.01,0.14,0.14,0.25,0.29,0.26c0.2,0.02,0.4,0.03,0.6,0.04c0.49,0.02,0.97,0.03,1.46,0.07c1.42,0.12,2.85,0.15,4.28,0.25
	c0.94,0.07,1.88,0.09,2.82,0.17c0.23,0.02,0.46,0.02,0.68,0.03c0.63,0.03,1.26,0.07,1.88,0.1c0.94,0.05,1.88,0.1,2.83,0.15
	c0.08,0,0.17,0,0.25-0.02c0.05-0.01,0.11-0.06,0.13-0.1c0.06-0.16,0.11-0.33,0.14-0.49c0.13-0.79,0.25-1.58,0.38-2.37
	c0.14-0.85,0.27-1.69,0.41-2.54c0.14-0.87,0.29-1.75,0.43-2.62c0.18-1.13,0.37-2.25,0.55-3.38c0.01-0.06,0.03-0.11,0.05-0.16
	c0.02-0.05,0.06-0.09,0.12-0.11c0.05-0.02,0.11-0.04,0.16-0.05c0.68-0.05,1.37-0.13,2.05-0.19c1.11-0.11,2.21-0.27,3.31-0.44
	c1.02-0.15,2.03-0.32,3.03-0.56c0.19-0.05,0.39-0.06,0.59-0.08c0.09-0.01,0.17,0.04,0.22,0.11c0.08,0.12,0.15,0.24,0.22,0.37
	c0.79,1.42,1.59,2.84,2.38,4.26c1.02,1.82,2.03,3.64,3.05,5.46c0.27,0.48,0.31,0.51,0.79,0.32c0.13-0.05,0.27-0.1,0.4-0.14
	c3.44-1.24,6.88-2.47,10.31-3.71c0.97-0.35,1.93-0.69,2.9-1.04c0.16-0.06,0.32-0.13,0.47-0.2c0.05-0.03,0.07-0.09,0.08-0.14
	c0.02-0.09,0-0.17-0.02-0.25c-0.28-1.19-0.56-2.39-0.85-3.58c-0.6-2.53-1.2-5.05-1.8-7.58c-0.02-0.08-0.03-0.17-0.04-0.25
	c-0.01-0.05,0.06-0.2,0.11-0.22c0.18-0.1,0.35-0.19,0.53-0.29c2.42-1.3,4.76-2.72,7.02-4.28c0.12-0.08,0.24-0.16,0.36-0.24
	c0.06-0.04,0.19-0.04,0.25,0c0.23,0.17,0.46,0.34,0.68,0.52c2.78,2.2,5.55,4.4,8.33,6.6c0.11,0.09,0.22,0.18,0.34,0.26
	c0.04,0.04,0.09,0.07,0.13,0.11c0.13,0.1,0.28,0.1,0.38,0c0.29-0.27,0.59-0.54,0.88-0.82c2.03-1.89,4.05-3.78,6.08-5.68
	c1.29-1.21,2.59-2.42,3.88-3.63c0.17-0.16,0.33-0.32,0.49-0.48c0.09-0.09,0.1-0.28,0.02-0.4c-0.13-0.19-0.26-0.37-0.4-0.56
	c-1.75-2.4-3.5-4.8-5.24-7.21c-1.14-1.57-2.29-3.14-3.43-4.71c-0.1-0.14-0.18-0.29-0.32-0.4c-0.05-0.04-0.1-0.04-0.16-0.02
	c-0.13,0.06-0.23,0.17-0.33,0.27c-2.64,2.58-5.5,4.91-8.57,6.96c-3.55,2.37-7.31,4.35-11.29,5.91c-1.92,0.75-3.87,1.4-5.85,1.95
	c-0.71,0.2-1.43,0.38-2.16,0.55c-0.72,0.17-1.45,0.33-2.18,0.47c-1.21,0.24-2.42,0.43-3.64,0.59c-0.59,0.08-1.19,0.14-1.79,0.21
	c-0.54,0.07-1.08,0.11-1.62,0.15c-0.2,0.01-0.4,0.02-0.6,0.04c-0.54,0.07-1.08,0.08-1.63,0.09c-0.91,0.02-1.83,0.04-2.74,0.04
	c-0.94,0-1.89-0.01-2.83-0.08c-0.71-0.05-1.43-0.1-2.14-0.15c-0.14-0.01-0.29-0.02-0.43-0.04c-0.76-0.1-1.53-0.16-2.3-0.26
	c-0.91-0.12-1.81-0.26-2.71-0.42c-0.73-0.13-1.46-0.28-2.19-0.43c-1.29-0.27-2.56-0.59-3.82-0.95c-2.23-0.63-4.41-1.39-6.55-2.28
	c-2.51-1.04-4.94-2.25-7.28-3.63c-2.99-1.76-5.79-3.77-8.42-6.03c-3.33-2.87-6.29-6.07-8.89-9.61c-2.56-3.49-4.71-7.22-6.43-11.19
	c-1.23-2.83-2.24-5.74-3.01-8.73c-0.41-1.58-0.75-3.16-1.03-4.77c-0.24-1.38-0.44-2.77-0.58-4.16c-0.13-1.25-0.24-2.5-0.28-3.76
	c-0.03-0.94-0.06-1.88-0.09-2.83c0,0,0.01,0,0.01,0c0.01-0.54,0-1.09,0.02-1.63c0.03-0.8,0.08-1.6,0.11-2.4
	c0.03-0.63,0.12-1.25,0.16-1.88c0.04-0.71,0.17-1.42,0.22-2.13c0.12-0.59,0.17-1.19,0.27-1.78c0.17-1.07,0.37-2.14,0.6-3.2
	c0.49-2.26,1.11-4.49,1.86-6.68c1.1-3.19,2.45-6.27,4.08-9.23c1.5-2.74,3.21-5.33,5.12-7.79c2.32-2.99,4.91-5.72,7.75-8.22
	c1.31-1.15,2.67-2.24,4.07-3.27c1.59-1.17,3.23-2.25,4.93-3.26c1.25-0.74,2.54-1.43,3.84-2.09c1.33-0.67,2.68-1.28,4.06-1.84
	c1.51-0.61,3.04-1.17,4.59-1.66c1.34-0.42,2.68-0.79,4.04-1.12c0.92-0.22,1.84-0.42,2.76-0.6c0.76-0.14,1.52-0.27,2.28-0.39
	c0.76-0.12,1.53-0.22,2.29-0.3c0.82-0.09,1.65-0.16,2.48-0.22c0.51-0.04,1.03-0.06,1.54-0.08c1.66-0.08,3.31-0.09,4.97-0.01
	c1.06,0.05,2.11,0.1,3.16,0.21c0.97,0.1,1.93,0.21,2.89,0.34c1.33,0.19,2.65,0.43,3.97,0.7c2.07,0.44,4.11,0.99,6.12,1.65
	c2.64,0.87,5.19,1.93,7.68,3.16c2.31,1.14,4.54,2.42,6.68,3.85c2.93,1.96,5.67,4.15,8.21,6.6c0.45,0.44,0.9,0.88,1.35,1.32
	c0.08,0.08,0.17,0.15,0.27,0.21c0.05,0.03,0.11,0.02,0.16-0.01c0.19-0.14,0.3-0.34,0.44-0.52c1.85-2.4,3.7-4.79,5.55-7.19
	c1.17-1.51,2.34-3.03,3.51-4.54c0.1-0.14,0.22-0.26,0.29-0.42c0.03-0.06,0.02-0.18-0.04-0.24C496.91,62.32,496.79,62.2,496.67,62.08
	z M479.74,65.34c-0.23,0.33-0.51,0.62-0.78,0.91c-0.09,0.09-0.24,0.1-0.31,0.05c-0.33-0.23-0.65-0.46-0.98-0.69
	c-1.71-1.2-3.47-2.31-5.29-3.33c-1.79-1.01-3.63-1.94-5.51-2.77c-3.11-1.38-6.32-2.51-9.6-3.4c-1.99-0.54-4-0.97-6.03-1.31
	c-1.58-0.26-3.17-0.47-4.76-0.61c-2.94-0.26-5.88-0.32-8.82-0.18c-1.06,0.05-2.11,0.13-3.16,0.25c-0.71,0.08-1.42,0.16-2.13,0.25
	c-1.13,0.15-2.26,0.34-3.38,0.56c-1.43,0.28-2.85,0.6-4.26,0.97c-1.19,0.31-2.37,0.66-3.53,1.04c-1.19,0.39-2.37,0.82-3.54,1.28
	c-1.65,0.64-3.26,1.37-4.85,2.15c-1.98,0.97-3.89,2.04-5.76,3.21c-1.94,1.21-3.81,2.52-5.61,3.93c-2.43,1.91-4.71,3.99-6.83,6.24
	c-2.58,2.73-4.89,5.66-6.93,8.81c-1.7,2.61-3.19,5.34-4.46,8.19c-1.04,2.32-1.94,4.69-2.69,7.12c-0.51,1.66-0.95,3.35-1.32,5.05
	c-0.23,1.06-0.43,2.13-0.62,3.19c-0.1,0.56-0.15,1.13-0.25,1.69c-0.11,0.68-0.15,1.36-0.26,2.04c-0.02,0.11-0.02,0.23-0.03,0.34
	c-0.05,0.57-0.1,1.14-0.15,1.71c-0.02,0.23-0.03,0.46-0.04,0.68c-0.03,0.68-0.07,1.37-0.09,2.05c-0.04,0.94-0.04,1.88-0.04,2.83
	c0,0.17,0.01,0.34,0.02,0.51c0.02,0.63,0.05,1.26,0.07,1.88c0.05,1.43,0.17,2.85,0.32,4.27c0.08,0.71,0.15,1.42,0.25,2.13
	c0.21,1.37,0.49,3.15,0.96,5.22c0.54,2.37,1.21,4.7,2.02,6.99c1.85,5.23,4.37,10.1,7.54,14.65c2.89,4.14,6.24,7.88,10.05,11.2
	c3.63,3.17,7.58,5.87,11.83,8.15c2.67,1.43,5.43,2.67,8.28,3.69c2.69,0.97,5.43,1.75,8.23,2.34c1.64,0.34,2.38,0.46,3.88,0.7
	c1.16,0.18,2.32,0.32,3.49,0.43c1.62,0.16,3.25,0.24,4.88,0.27c1.57,0.03,3.14-0.02,4.71-0.07c0.26-0.01,0.51-0.03,0.77-0.05
	c0.48-0.04,0.97-0.07,1.45-0.11c0.28-0.02,0.57-0.06,0.85-0.09c0.2-0.02,0.4-0.05,0.6-0.07c0.31-0.03,0.62-0.07,0.94-0.12
	c0.48-0.08,0.96-0.12,1.44-0.2c1.18-0.19,2.36-0.41,3.54-0.65c0.81-0.17,1.62-0.36,2.42-0.55c1.36-0.33,2.7-0.72,4.03-1.16
	c3.13-1.01,6.16-2.28,9.09-3.76c0.15-0.08,0.3-0.16,0.46-0.23c0.13-0.06,0.28-0.01,0.36,0.13c0.1,0.17,0.21,0.34,0.28,0.53
	c0.03,0.07-0.01,0.16-0.09,0.22c-0.07,0.05-0.14,0.1-0.22,0.14c-3.22,1.75-6.57,3.21-10.03,4.4c-1.49,0.51-2.99,0.96-4.51,1.34
	c-0.91,0.23-1.82,0.47-2.76,0.63c-0.2,0.03-0.39,0.09-0.59,0.13c-1.04,0.2-2.08,0.39-3.12,0.54c-0.68,0.1-1.36,0.2-2.04,0.28
	c-0.57,0.07-1.14,0.13-1.71,0.17c-1.74,0.12-3.48,0.25-5.22,0.23c-1.03-0.01-2.06-0.02-3.09-0.04c-0.46-0.01-0.91-0.05-1.37-0.08
	c-0.11-0.01-0.23-0.02-0.34-0.03c-0.97-0.03-1.94-0.14-2.9-0.24c-0.65-0.07-1.31-0.14-1.96-0.25c-0.48-0.08-0.96-0.14-1.44-0.21
	c-1.41-0.23-2.81-0.5-4.2-0.82c-2.79-0.63-5.52-1.45-8.2-2.45c-5.27-1.97-10.21-4.57-14.77-7.86c-2.3-1.66-4.47-3.47-6.52-5.42
	c-3.49-3.32-6.57-6.99-9.23-11.01c-2.81-4.23-5.07-8.74-6.78-13.51c-0.93-2.58-1.69-5.21-2.27-7.89c-0.32-1.47-0.49-2.45-0.7-3.7
	c-0.17-1.01-0.31-2.03-0.43-3.05c-0.1-0.88-0.22-1.76-0.24-2.64c0-0.17-0.02-0.34-0.03-0.51c-0.09-0.85-0.11-1.71-0.13-2.57
	c-0.02-1.66-0.03-3.31,0.04-4.97c0.01-0.23,0.02-0.46,0.04-0.68c0.03-0.48,0.07-0.97,0.1-1.45c0.02-0.4,0.05-0.8,0.1-1.19
	c0.02-0.14,0.04-0.28,0.05-0.43c0.07-0.91,0.2-1.82,0.32-2.72c0.16-1.19,0.36-2.37,0.59-3.55c0.5-2.55,1.15-5.06,1.95-7.54
	c1.63-5.02,3.82-9.78,6.59-14.26c1.71-2.77,3.63-5.4,5.74-7.89c2.09-2.47,4.35-4.77,6.77-6.91c1.69-1.49,3.46-2.89,5.3-4.21
	c1.07-0.77,2.16-1.5,3.27-2.2c1.72-1.07,3.48-2.08,5.3-2.99c1.36-0.67,2.73-1.31,4.12-1.9c1.32-0.55,2.65-1.05,4-1.52
	c1.57-0.54,3.15-1.01,4.76-1.42c1.16-0.3,2.33-0.56,3.51-0.8c1.18-0.24,2.36-0.44,3.55-0.61c0.65-0.09,1.3-0.17,1.95-0.25
	c0.94-0.11,1.88-0.17,2.82-0.25c0.28-0.03,0.57-0.04,0.86-0.05c1.11-0.05,2.23-0.08,3.34-0.07c1.11,0,2.23,0.01,3.34,0.09
	c1.08,0.07,2.17,0.13,3.25,0.26c0.54,0.06,1.08,0.12,1.62,0.18c1.36,0.17,2.71,0.39,4.06,0.66c2.36,0.46,4.68,1.06,6.97,1.78
	c1.96,0.62,3.89,1.34,5.78,2.14c1.71,0.73,3.37,1.57,5,2.46c3.01,1.65,5.88,3.53,8.59,5.64c0.16,0.12,0.31,0.26,0.46,0.39
	C479.78,65.15,479.79,65.28,479.74,65.34z M866.22,93.97c0-36.72-27.01-58.99-70.6-58.99H727.4v165.83h30.8v-48.33h37.43
	c2.13,0,4.26,0,6.4-0.24l33.88,48.56h33.17l-38.14-54.49C853.43,137.56,866.22,119.08,866.22,93.97z M794.21,127.14H758.2v-66.1
	h36.01c27.01,0,40.98,12.08,40.98,32.93C835.19,114.82,821.21,127.14,794.21,127.14z M702.63,117.9c0,16.71-5.5,32.55-15.98,46.2
	c4.39-9.17,6.68-19.12,6.68-29.15c0-41.3-38.15-74.91-85.05-74.91c-46.89,0-85.05,33.6-85.05,74.91c0,10.03,2.29,19.98,6.68,29.15
	c-10.48-13.65-15.98-29.49-15.98-46.2c0-45.72,42.33-82.92,94.35-82.92C660.3,34.98,702.63,72.18,702.63,117.9z M669.51,96.95
	c8.89,11.06,13.73,24.36,13.73,38c0,36.32-33.63,65.86-74.96,65.86c-41.33,0-74.96-29.54-74.96-65.86c0-13.64,4.84-26.95,13.73-38
	c-2.94,6.65-4.43,13.67-4.43,20.95c0,31.9,29.46,57.85,65.66,57.85c36.21,0,65.66-25.95,65.66-57.85
	C673.94,110.62,672.45,103.6,669.51,96.95z"/>
</svg>
